<svg width="1830" height="653" xmlns="http://www.w3.org/2000/svg">
  <path d="M1 652V41C28.667 41 56.333 1 84 1s55.333 40 83 40 55.333-40 83-40 55.333 40 83 40 55.333-40 83-40 55.333 40 83 40 55.333-40 83-40 55.333 40 83 40 55.333-40 83-40 55.333 40 83 40 55.333-40 83-40 55.333 40 83 40 55.333-40 83-40 55.333 40 83 40 55.333-40 83-40 55.333 40 83 40 55.333-40 83-40 55.333 40 83 40 55.333-40 83-40 55.333 40 83 40 55.333-40 83-40 55.333 40 83 40v611H1z" fill="#00C0B4"/>
  <path d="M1.022 652V149.96C24.015 140.628 47.007 113 70 113c27.667 0 55.333 40 83 40s55.333-40 83-40 55.333 40 83 40 55.333-40 83-40 55.333 40 83 40 55.333-40 83-40 55.333 40 83 40 55.333-40 83-40 55.333 40 83 40 55.333-40 83-40 55.333 40 83 40 55.333-40 83-40 55.333 40 83 40 55.333-40 83-40 55.333 40 83 40 55.333-40 83-40 55.333 40 83 40 55.333-40 83-40 55.333 40 83 40 55.333-40 83-40 55.333 40 83 40c4.67 0 9.34-1.14 14.01-3.034-.007.69.153 168.034.479 502.034H1.022z" fill="#00B4BD"/>
  <path d="M1.01 652V254.409C19.34 242.559 37.67 225 56 225c27.667 0 55.333 40 83 40s55.333-40 83-40 55.333 40 83 40 55.333-40 83-40 55.333 40 83 40 55.333-40 83-40 55.333 40 83 40 55.333-40 83-40 55.333 40 83 40 55.333-40 83-40 55.333 40 83 40 55.333-40 83-40 55.333 40 83 40 55.333-40 83-40 55.333 40 83 40 55.333-40 83-40 55.333 40 83 40 55.333-40 83-40 55.333 40 83 40 55.333-40 83-40 55.333 40 83 40c8.718 0 18.37-3.96 28.1-9.4 0 .94.3 133.074.903 396.4H1.01z" fill="#00A8C3"/>
  <path d="M.995 652V356.642C14.663 346.762 28.332 337 42 337c27.667 0 55.333 40 83 40s55.333-40 83-40 55.333 40 83 40 55.333-40 83-40 55.333 40 83 40 55.333-40 83-40 55.333 40 83 40 55.333-40 83-40 55.333 40 83 40 55.333-40 83-40 55.333 40 83 40 55.333-40 83-40 55.333 40 83 40 55.333-40 83-40 55.333 40 83 40 55.333-40 83-40 55.333 40 83 40 55.333-40 83-40 55.333 40 83 40 55.333-40 83-40 55.333 40 83 40c14.1 0 28.2-10.39 42.3-20.579 0 1.72.393 100.246 1.181 295.579H.995z" fill="#009BC4"/>
  <path d="M1.006 652V458.94C10.004 453.232 19.002 449 28 449c27.667 0 55.333 40 83 40s55.333-40 83-40 55.333 40 83 40 55.333-40 83-40 55.333 40 83 40 55.333-40 83-40 55.333 40 83 40 55.333-40 83-40 55.333 40 83 40 55.333-40 83-40 55.333 40 83 40 55.333-40 83-40 55.333 40 83 40 55.333-40 83-40 55.333 40 83 40 55.333-40 83-40 55.333 40 83 40 55.333-40 83-40 55.333 40 83 40 55.333-40 83-40 55.333 40 83 40c18.9 0 37.8-18.668 56.7-30.498 0 .999.438 65.498 1.313 193.498H1.006z" fill="#008DC1"/>
  <path d="M1.073 652v-87.392C5.383 562.97 9.691 562 14 562c27.667 0 55.333 40 83 40s55.333-40 83-40 55.333 40 83 40 55.333-40 83-40 55.333 40 83 40 55.333-40 83-40 55.333 40 83 40 55.333-40 83-40 55.333 40 83 40 55.333-40 83-40 55.333 40 83 40 55.333-40 83-40 55.333 40 83 40 55.333-40 83-40 55.333 40 83 40 55.333-40 83-40 55.333 40 83 40 55.333-40 83-40 55.333 40 83 40 55.333-40 83-40 55.333 40 83 40c23.8 0 47.599-29.602 71.4-37.875 0 1.25.362 30.542 1.085 87.875H1.073z" fill="#287FB8"/>
</svg>
