<svg height="653" width="1830" xmlns="http://www.w3.org/2000/svg"><path d="m1 652v-611c27.667 0 55.333-40 83-40s55.333 40 83 40 55.333-40 83-40 55.333 40 83 40 55.333-40 83-40 55.333 40 83 40 55.333-40 83-40 55.333 40 83 40 55.333-40 83-40 55.333 40 83 40 55.333-40 83-40 55.333 40 83 40 55.333-40 83-40 55.333 40 83 40 55.333-40 83-40 55.333 40 83 40 55.333-40 83-40 55.333 40 83 40 55.333-40 83-40 55.333 40 83 40 55.333-40 83-40 55.333 40 83 40v611z" fill="#00c0b4"/><path d="m1.022 652v-502.04c22.993-9.332 45.985-36.96 68.978-36.96 27.667 0 55.333 40 83 40s55.333-40 83-40 55.333 40 83 40 55.333-40 83-40 55.333 40 83 40 55.333-40 83-40 55.333 40 83 40 55.333-40 83-40 55.333 40 83 40 55.333-40 83-40 55.333 40 83 40 55.333-40 83-40 55.333 40 83 40 55.333-40 83-40 55.333 40 83 40 55.333-40 83-40 55.333 40 83 40 55.333-40 83-40 55.333 40 83 40 55.333-40 83-40 55.333 40 83 40c4.67 0 9.34-1.14 14.01-3.034-.007.69.153 168.034.479 502.034z" fill="#00b4bd"/><path d="m1.01 652v-397.591c18.33-11.85 36.66-29.409 54.99-29.409 27.667 0 55.333 40 83 40s55.333-40 83-40 55.333 40 83 40 55.333-40 83-40 55.333 40 83 40 55.333-40 83-40 55.333 40 83 40 55.333-40 83-40 55.333 40 83 40 55.333-40 83-40 55.333 40 83 40 55.333-40 83-40 55.333 40 83 40 55.333-40 83-40 55.333 40 83 40 55.333-40 83-40 55.333 40 83 40 55.333-40 83-40 55.333 40 83 40 55.333-40 83-40 55.333 40 83 40c8.718 0 18.37-3.96 28.1-9.4 0 .94.3 133.074.903 396.4z" fill="#00a8c3"/><path d="m.995 652v-295.358c13.668-9.88 27.337-19.642 41.005-19.642 27.667 0 55.333 40 83 40s55.333-40 83-40 55.333 40 83 40 55.333-40 83-40 55.333 40 83 40 55.333-40 83-40 55.333 40 83 40 55.333-40 83-40 55.333 40 83 40 55.333-40 83-40 55.333 40 83 40 55.333-40 83-40 55.333 40 83 40 55.333-40 83-40 55.333 40 83 40 55.333-40 83-40 55.333 40 83 40 55.333-40 83-40 55.333 40 83 40 55.333-40 83-40 55.333 40 83 40c14.1 0 28.2-10.39 42.3-20.579 0 1.72.393 100.246 1.181 295.579z" fill="#009bc4"/><path d="m1.006 652v-193.06c8.998-5.708 17.996-9.94 26.994-9.94 27.667 0 55.333 40 83 40s55.333-40 83-40 55.333 40 83 40 55.333-40 83-40 55.333 40 83 40 55.333-40 83-40 55.333 40 83 40 55.333-40 83-40 55.333 40 83 40 55.333-40 83-40 55.333 40 83 40 55.333-40 83-40 55.333 40 83 40 55.333-40 83-40 55.333 40 83 40 55.333-40 83-40 55.333 40 83 40 55.333-40 83-40 55.333 40 83 40 55.333-40 83-40 55.333 40 83 40c18.9 0 37.8-18.668 56.7-30.498 0 .999.438 65.498 1.313 193.498z" fill="#008dc1"/><path d="m1.073 652v-87.392c4.31-1.638 8.618-2.608 12.927-2.608 27.667 0 55.333 40 83 40s55.333-40 83-40 55.333 40 83 40 55.333-40 83-40 55.333 40 83 40 55.333-40 83-40 55.333 40 83 40 55.333-40 83-40 55.333 40 83 40 55.333-40 83-40 55.333 40 83 40 55.333-40 83-40 55.333 40 83 40 55.333-40 83-40 55.333 40 83 40 55.333-40 83-40 55.333 40 83 40 55.333-40 83-40 55.333 40 83 40 55.333-40 83-40 55.333 40 83 40c23.8 0 47.599-29.602 71.4-37.875 0 1.25.362 30.542 1.085 87.875z" fill="#287fb8"/></svg>